<svg xmlns="http://www.w3.org/2000/svg" viewBox="0 0 32 32"><style>path{fill:#111111}@media (prefers-color-scheme:dark){path{fill:#FFFFFF}}</style><path transform="translate(0.7447 24.2475) scale(0.032904 -0.032904)" d="M355.8003051687965 0 346.1003242418463 61.34999046347511Q321.05035285142094 29.699980926950218 289.3003051687965 12.0Q257.55025748617203 -5.69998092695022 205.00019073049782 -5.69998092695022Q155.1501049017738 -5.69998092695022 117.67509059698646 11.45002860957467Q80.20007629219913 28.60003814609956 59.175090596986465 60.27503337783712Q38.150104901773794 91.95002860957467 38.150104901773794 135.3499904634751Q38.150104901773794 198 83.77512874308603 239.6250238413122Q129.40015258439826 281.2500476826244 221.1501049017738 291.60003814609956L346.1003242418463 305.5500667556742V341.0501621209231Q346.1003242418463 362.20026702269695 326.90024794964717 380.27531947358386Q307.70017165744804 398.3503719244707 267 398.3503719244707Q231.24985695212663 398.3503719244707 204.7747472820904 380.4503147053214Q178.29963761205417 362.55025748617203 169.3496090024795 327.8001144382987L58.95002860957467 368.04997139042536Q79.34999046347511 434.7499523173756 135.32500476826243 470.8749761586878Q191.30001907304978 507 273 507Q372.7999237078009 507 423.5748617203891 457.2750333778371Q474.3497997329773 407.5500667556742 474.3497997329773 326.95021934007247V0ZM346.1003242418463 216.8001144382987 238.1998855617013 203.25004768262446Q204.79973297730308 198.95002860957467 187.9246614533664 183.69998092695022Q171.04958992942971 168.44993324432576 171.04958992942971 146.24985695212663Q171.04958992942971 124.69979019645241 188.14962807552928 110.12473774556551Q205.24966622162884 95.54968529467862 235.79973297730308 95.54968529467862Q271.09994278085065 95.54968529467862 295.7000762921991 108.62473774556551Q320.3002098035476 121.69979019645241 333.20026702269695 146.8498950982262Q346.1003242418463 172 346.1003242418463 208.75014304787337Z"/><path transform="translate(18.1511 24.2475) scale(0.032904 -0.032904)" d="M61.700171657448024 500H178.19969483120352L187.24966622162884 435.90005721914935Q207.54968529467862 461.60003814609956 234.19969483120352 478.4500286095747Q260.8497043677284 495.3000190730498 292.72468052641614 501.47501430478735Q324.5996566851039 507.65000953652486 360.09956131985507 500V380.40053404539384Q333.44955178333015 389.05054358191876 303.92456608811744 385.0755292771314Q274.3995803929048 381.10051497234406 248.52460423421704 364.1255006675567Q222.64962807552928 347.1504863627694 206.29963761205417 315.47549113103184Q189.94964714857906 283.8004958992943 189.94964714857906 236.05054358191876V0H61.700171657448024Z"/></svg>